<svg width="121" height="179" viewBox="0 0 121 179" fill="none" xmlns="http://www.w3.org/2000/svg">
<path d="M54.343 61.0597C53.1393 61.0597 52.1545 62.0445 52.1545 63.2481C52.1545 64.4518 53.1393 65.4366 54.343 65.4366C55.5603 65.4366 56.5314 64.4518 56.5314 63.2481C56.5314 62.0445 55.5603 61.0597 54.343 61.0597Z" fill="#FCF8EA"/>
<path d="M53.1803 54.4809C51.9083 54.4809 50.8688 55.5204 50.8688 56.7924C50.8688 58.0645 51.9083 59.104 53.1803 59.104C54.466 59.104 55.4918 58.0645 55.4918 56.7924C55.4918 55.5204 54.4523 54.4809 53.1803 54.4809Z" fill="#FCF8EA"/>
<path d="M38.477 59.1176C39.7461 59.1176 40.7749 58.0889 40.7749 56.8198C40.7749 55.5507 39.7461 54.5219 38.477 54.5219C37.208 54.5219 36.1792 55.5507 36.1792 56.8198C36.1792 58.0889 37.208 59.1176 38.477 59.1176Z" fill="#FCF8EA"/>
<path d="M44.2763 54.7956C45.6058 54.7956 46.6835 53.7178 46.6835 52.3884C46.6835 51.0589 45.6058 49.9811 44.2763 49.9811C42.9468 49.9811 41.869 51.0589 41.869 52.3884C41.869 53.7178 42.9468 54.7956 44.2763 54.7956Z" fill="#FCF8EA"/>
<path d="M47.1758 57.4761C45.9722 57.4761 44.9874 58.4609 44.9874 59.6646C44.9874 60.8682 45.9722 61.853 47.1758 61.853C48.3795 61.853 49.3643 60.8682 49.3643 59.6646C49.3643 58.4609 48.3932 57.4761 47.1758 57.4761Z" fill="#FCF8EA"/>
<path d="M39.9406 47.5597C41.406 47.5597 42.594 46.3717 42.594 44.9063C42.594 43.4408 41.406 42.2528 39.9406 42.2528C38.4751 42.2528 37.2871 43.4408 37.2871 44.9063C37.2871 46.3717 38.4751 47.5597 39.9406 47.5597Z" fill="#FCF8EA"/>
<path d="M66.7759 61.0597C65.5586 61.0597 64.5875 62.0445 64.5875 63.2481C64.5875 64.4518 65.5723 65.4366 66.7759 65.4366C67.9796 65.4366 68.9644 64.4518 68.9644 63.2481C68.9644 62.0445 67.9796 61.0597 66.7759 61.0597Z" fill="#FCF8EA"/>
<path d="M55.2184 70.7709C56.3666 70.7709 57.2974 69.8401 57.2974 68.6919C57.2974 67.5437 56.3666 66.6129 55.2184 66.6129C54.0702 66.6129 53.1394 67.5437 53.1394 68.6919C53.1394 69.8401 54.0702 70.7709 55.2184 70.7709Z" fill="#FCF8EA"/>
<path d="M65.2031 75.6674C66.3438 75.6674 67.2685 74.7427 67.2685 73.6021C67.2685 72.4614 66.3438 71.5368 65.2031 71.5368C64.0625 71.5368 63.1378 72.4614 63.1378 73.6021C63.1378 74.7427 64.0625 75.6674 65.2031 75.6674Z" fill="#FCF8EA"/>
<path d="M55.916 75.6536C57.0567 75.6536 57.9814 74.729 57.9814 73.5883C57.9814 72.4477 57.0567 71.523 55.916 71.523C54.7754 71.523 53.8507 72.4477 53.8507 73.5883C53.8507 74.729 54.7754 75.6536 55.916 75.6536Z" fill="#FCF8EA"/>
<path d="M60.5527 32.3093C58.8703 32.3093 57.5026 33.6771 57.5026 35.3594C57.5026 37.0418 58.8703 38.4096 60.5527 38.4096C62.235 38.4096 63.6028 37.0418 63.6028 35.3594C63.6028 33.6771 62.2487 32.3093 60.5527 32.3093Z" fill="#FCF8EA"/>
<path d="M65.9008 70.7844C67.049 70.7844 67.9798 69.8536 67.9798 68.7054C67.9798 67.5572 67.049 66.6264 65.9008 66.6264C64.7526 66.6264 63.8218 67.5572 63.8218 68.7054C63.8218 69.8536 64.7526 70.7844 65.9008 70.7844Z" fill="#FCF8EA"/>
<path d="M34.0043 59.6919C32.7459 59.6919 31.7201 60.7177 31.7201 61.9761C31.7201 63.2344 32.7459 64.2602 34.0043 64.2602C35.2626 64.2602 36.2884 63.2344 36.2884 61.9761C36.2884 60.7177 35.2626 59.6919 34.0043 59.6919Z" fill="#FCF8EA"/>
<path d="M28.3008 59.5824C29.6379 59.5824 30.7218 58.4985 30.7218 57.1615C30.7218 55.8244 29.6379 54.7405 28.3008 54.7405C26.9638 54.7405 25.8799 55.8244 25.8799 57.1615C25.8799 58.4985 26.9638 59.5824 28.3008 59.5824Z" fill="#FCF8EA"/>
<path d="M51.4161 45.9187C50.021 45.9187 48.8857 47.054 48.8857 48.4491C48.8857 49.8442 50.021 50.9794 51.4161 50.9794C52.8112 50.9794 53.9465 49.8442 53.9465 48.4491C53.9601 47.054 52.8249 45.9187 51.4161 45.9187Z" fill="#FCF8EA"/>
<path d="M41.9921 61.128C40.8432 61.128 39.9131 62.0581 39.9131 63.207C39.9131 64.3559 40.8432 65.286 41.9921 65.286C43.141 65.286 44.0711 64.3559 44.0711 63.207C44.0848 62.0581 43.141 61.128 41.9921 61.128Z" fill="#FCF8EA"/>
<path d="M37.9846 69.3344C39.1404 69.3344 40.0773 68.3975 40.0773 67.2417C40.0773 66.086 39.1404 65.149 37.9846 65.149C36.8289 65.149 35.892 66.086 35.892 67.2417C35.892 68.3975 36.8289 69.3344 37.9846 69.3344Z" fill="#FCF8EA"/>
<path d="M60.5527 48.9139C62.0937 48.9139 63.3429 47.6647 63.3429 46.1237C63.3429 44.5827 62.0937 43.3335 60.5527 43.3335C59.0117 43.3335 57.7625 44.5827 57.7625 46.1237C57.7625 47.6647 59.0117 48.9139 60.5527 48.9139Z" fill="#FCF8EA"/>
<path d="M60.5527 57.3941C61.9502 57.3941 63.0831 56.2613 63.0831 54.8638C63.0831 53.4663 61.9502 52.3334 60.5527 52.3334C59.1552 52.3334 58.0223 53.4663 58.0223 54.8638C58.0223 56.2613 59.1552 57.3941 60.5527 57.3941Z" fill="#FCF8EA"/>
<path d="M60.5526 65.3134C59.2806 65.3134 58.2548 66.3392 58.2548 67.6113C58.2548 68.8833 59.2806 69.9091 60.5526 69.9091C61.8246 69.9091 62.8504 68.8833 62.8504 67.6113C62.8504 66.3392 61.8246 65.3134 60.5526 65.3134Z" fill="#FCF8EA"/>
<path d="M44.3037 66.4761C43.2095 66.4761 42.3204 67.3651 42.3204 68.4594C42.3204 69.5536 43.2095 70.4426 44.3037 70.4426C45.3979 70.4426 46.2869 69.5536 46.2869 68.4594C46.2733 67.3651 45.3842 66.4761 44.3037 66.4761Z" fill="#FCF8EA"/>
<path d="M82.5328 71.7696C82.5328 70.6343 81.6027 69.7043 80.4674 69.7043C79.3322 69.7043 78.4021 70.6343 78.4021 71.7696C78.4021 72.3714 78.662 72.9048 79.0723 73.2878C78.9219 73.2468 78.7577 73.2331 78.5936 73.2331C77.4994 73.2331 76.5967 74.1221 76.5967 75.23C76.5967 75.7361 76.7882 76.2011 77.1028 76.5567C77.048 76.5567 76.9933 76.5431 76.9249 76.5431C75.8991 76.5431 75.0648 77.3774 75.0648 78.4032C75.0648 78.7041 75.1332 78.9777 75.2563 79.2239C74.7092 79.4427 74.2852 79.9078 74.1073 80.4822C74.1757 80.2771 74.2168 80.0582 74.2168 79.8257C74.2168 79.2923 74.0116 78.8136 73.6697 78.4443C74.5177 78.2528 75.1468 77.5005 75.1468 76.6115C75.1468 75.572 74.2988 74.7239 73.2593 74.7239C72.2198 74.7239 71.3718 75.572 71.3718 76.6115C71.3718 77.0902 71.5496 77.5279 71.8505 77.8561C71.0983 77.9929 70.4965 78.5674 70.2913 79.2923C70.3597 79.1008 70.387 78.8956 70.387 78.6768C70.387 77.9655 70.0177 77.3501 69.457 76.9808C70.4965 76.926 71.3308 76.0644 71.3308 75.0112C71.3308 73.958 70.4417 73.0416 69.3612 73.0416C68.267 73.0416 67.3916 73.9306 67.3916 75.0112C67.3916 75.7087 67.7472 76.3105 68.2944 76.6662C67.4737 76.7072 66.7898 77.227 66.5026 77.9519C66.5026 77.8972 66.5163 77.8561 66.5163 77.8014C66.5163 76.6935 65.6135 75.7908 64.5056 75.7908C63.6029 75.7908 62.8233 76.3926 62.5771 77.227C62.5087 76.1874 61.6333 75.3531 60.5802 75.3531C59.527 75.3531 58.6516 76.1738 58.5832 77.227C58.337 76.3926 57.5711 75.7908 56.6547 75.7908C55.5468 75.7908 54.6441 76.6935 54.6441 77.8014C54.6441 77.8561 54.6441 77.8972 54.6577 77.9519C54.3842 77.227 53.6866 76.7072 52.866 76.6662C53.4131 76.3105 53.7687 75.7087 53.7687 75.0112C53.7687 73.917 52.8797 73.0416 51.7991 73.0416C50.7049 73.0416 49.8295 73.9306 49.8295 75.0112C49.8295 76.0917 50.6639 76.926 51.7034 76.9808C51.1426 77.3364 50.7733 77.9655 50.7733 78.6768C50.7733 78.8956 50.8007 79.0871 50.869 79.2923C50.6639 78.5537 50.0621 77.9929 49.3098 77.8561C49.6107 77.5279 49.7885 77.0902 49.7885 76.6115C49.7885 75.572 48.9405 74.7239 47.901 74.7239C46.8615 74.7239 46.0135 75.572 46.0135 76.6115C46.0135 77.5142 46.6427 78.2664 47.4907 78.4443C47.1487 78.7999 46.9436 79.2923 46.9436 79.8257C46.9436 80.0582 46.9846 80.2771 47.053 80.4822C46.8889 79.9078 46.4512 79.4427 45.9041 79.2239C46.0272 78.9777 46.0956 78.7041 46.0956 78.4032C46.0956 77.3774 45.2612 76.5431 44.2354 76.5431C44.1807 76.5431 44.126 76.5431 44.0576 76.5567C44.3722 76.2011 44.5637 75.7361 44.5637 75.23C44.5637 74.1358 43.6746 73.2331 42.5667 73.2331C42.4026 73.2331 42.2385 73.2604 42.088 73.2878C42.4983 72.9048 42.7582 72.3714 42.7582 71.7696C42.7582 70.6343 41.8281 69.7043 40.6929 69.7043C39.5576 69.7043 38.6276 70.6343 38.6276 71.7696C38.6276 72.9048 39.5576 73.8349 40.6929 73.8349C40.8707 73.8349 41.0485 73.8075 41.2126 73.7665C40.8297 74.1358 40.5835 74.6419 40.5835 75.2163C40.5835 76.3106 41.4725 77.2133 42.5804 77.2133C42.6625 77.2133 42.7309 77.2133 42.8129 77.1996C42.5394 77.5279 42.3616 77.9519 42.3616 78.4032C42.3616 79.1555 42.8129 79.7983 43.4421 80.0993C43.2916 80.3728 43.1959 80.7011 43.1959 81.043C43.1959 81.7132 43.5242 82.2877 44.0302 82.6433C43.9482 82.8621 43.9071 83.0947 43.9071 83.3272C43.9071 83.888 44.1397 84.394 44.5089 84.7633C44.3858 85.0232 44.3175 85.3104 44.3175 85.6113C44.3175 86.7192 45.2202 87.622 46.3281 87.622C47.436 87.622 48.3387 86.7192 48.3387 85.6113V85.5977C48.708 86.0901 49.2824 86.4046 49.9526 86.4046C51.0195 86.4046 51.8812 85.584 51.9496 84.5308C52.3052 85.0916 52.9344 85.4746 53.6456 85.4746C54.4663 85.4746 55.1638 84.9958 55.4784 84.2983C55.8477 84.818 56.4495 85.16 57.1334 85.16C57.8857 85.16 58.5559 84.736 58.8978 84.1205C59.2534 84.6813 59.8826 85.0506 60.5938 85.0506C61.3051 85.0506 61.9343 84.6813 62.2899 84.1205C62.6318 84.736 63.2883 85.16 64.0543 85.16C64.7382 85.16 65.34 84.818 65.7093 84.2983C66.0239 84.9958 66.7214 85.4746 67.5421 85.4746C68.2533 85.4746 68.8825 85.1053 69.2381 84.5308C69.3065 85.5703 70.1819 86.4046 71.235 86.4046C71.8916 86.4046 72.4797 86.0901 72.849 85.5977V85.6113C72.849 86.7192 73.7517 87.622 74.8596 87.622C75.9675 87.622 76.8702 86.7192 76.8702 85.6113C76.8702 85.3104 76.8018 85.0232 76.6787 84.7633C77.048 84.394 77.2806 83.888 77.2806 83.3272C77.2806 83.081 77.2395 82.8485 77.1575 82.6433C77.6635 82.2877 77.9918 81.6995 77.9918 81.043C77.9918 80.7011 77.9097 80.3865 77.7456 80.0993C78.3884 79.7983 78.8261 79.1555 78.8261 78.4032C78.8261 77.9382 78.662 77.5279 78.3748 77.1996C78.4568 77.2133 78.5252 77.2133 78.6073 77.2133C79.7015 77.2133 80.6042 76.3242 80.6042 75.2163C80.6042 74.6419 80.358 74.1358 79.9751 73.7665C80.1392 73.8075 80.317 73.8349 80.4948 73.8349C81.6027 73.8349 82.5328 72.9048 82.5328 71.7696Z" fill="#FCF8EA"/>
<path d="M92.8183 59.5824C94.1553 59.5824 95.2392 58.4985 95.2392 57.1615C95.2392 55.8244 94.1553 54.7405 92.8183 54.7405C91.4812 54.7405 90.3973 55.8244 90.3973 57.1615C90.3973 58.4985 91.4812 59.5824 92.8183 59.5824Z" fill="#FCF8EA"/>
<path d="M87.1146 64.2602C88.3761 64.2602 89.3988 63.2376 89.3988 61.9761C89.3988 60.7146 88.3761 59.6919 87.1146 59.6919C85.8531 59.6919 84.8304 60.7146 84.8304 61.9761C84.8304 63.2376 85.8531 64.2602 87.1146 64.2602Z" fill="#FCF8EA"/>
<path d="M60.5526 70.7846C59.3489 70.7846 58.3778 71.7557 58.3778 72.9593C58.3778 74.163 59.3489 75.1341 60.5526 75.1341C61.7562 75.1341 62.7273 74.163 62.7273 72.9593C62.7273 71.7557 61.7562 70.7846 60.5526 70.7846Z" fill="#FCF8EA"/>
<path d="M46.2322 70.9211C45.1927 70.9211 44.3447 71.7692 44.3447 72.8087C44.3447 73.8482 45.1927 74.6962 46.2322 74.6962C47.2717 74.6962 48.1198 73.8482 48.1198 72.8087C48.1198 71.7692 47.2717 70.9211 46.2322 70.9211Z" fill="#FCF8EA"/>
<path d="M50.4996 68.5413C49.4054 68.5413 48.53 69.4303 48.53 70.5109C48.53 71.5914 49.4191 72.4804 50.4996 72.4804C51.5938 72.4804 52.4692 71.5914 52.4692 70.5109C52.4692 69.4303 51.5938 68.5413 50.4996 68.5413Z" fill="#FCF8EA"/>
<path d="M49.0224 63.5081C47.8598 63.5081 46.9297 64.4519 46.9297 65.6008C46.9297 66.7634 47.8734 67.6935 49.0224 67.6935C50.185 67.6935 51.115 66.7497 51.115 65.6008C51.115 64.4519 50.1713 63.5081 49.0224 63.5081Z" fill="#FCF8EA"/>
<path d="M82.642 59.1176C83.911 59.1176 84.9398 58.0889 84.9398 56.8198C84.9398 55.5507 83.911 54.5219 82.642 54.5219C81.3729 54.5219 80.3441 55.5507 80.3441 56.8198C80.3441 58.0889 81.3729 59.1176 82.642 59.1176Z" fill="#FCF8EA"/>
<path d="M60.5525 64.1646C61.8896 64.1646 62.9735 63.0807 62.9735 61.7437C62.9735 60.4066 61.8896 59.3227 60.5525 59.3227C59.2155 59.3227 58.1316 60.4066 58.1316 61.7437C58.1316 63.0807 59.2155 64.1646 60.5525 64.1646Z" fill="#FCF8EA"/>
<path d="M67.9385 54.4944C66.6528 54.4944 65.627 55.5339 65.627 56.8059C65.627 58.078 66.6665 59.1174 67.9385 59.1174C69.2242 59.1174 70.25 58.078 70.25 56.8059C70.2637 55.5202 69.2242 54.4944 67.9385 54.4944Z" fill="#FCF8EA"/>
<path d="M70.6058 68.555C69.5116 68.555 68.6362 69.4441 68.6362 70.5246C68.6362 71.6188 69.5253 72.4942 70.6058 72.4942C71.7 72.4942 72.5754 71.6052 72.5754 70.5246C72.5891 69.4304 71.7 68.555 70.6058 68.555Z" fill="#FCF8EA"/>
<path d="M83.1208 65.1631C81.9718 65.1631 81.0281 66.0932 81.0281 67.2558C81.0281 68.4047 81.9582 69.3485 83.1208 69.3485C84.2697 69.3485 85.2134 68.4184 85.2134 67.2558C85.2134 66.0932 84.2834 65.1631 83.1208 65.1631Z" fill="#FCF8EA"/>
<path d="M69.703 45.9322C68.3079 45.9322 67.1726 47.0674 67.1726 48.4626C67.1726 49.8577 68.3079 50.9929 69.703 50.9929C71.0981 50.9929 72.2333 49.8577 72.2333 48.4626C72.2333 47.0674 71.0981 45.9322 69.703 45.9322Z" fill="#FCF8EA"/>
<path d="M76.8427 49.9811C75.516 49.9811 74.4354 51.0616 74.4354 52.3884C74.4354 53.7151 75.516 54.7956 76.8427 54.7956C78.1694 54.7956 79.2499 53.7151 79.2499 52.3884C79.2499 51.0616 78.1694 49.9811 76.8427 49.9811Z" fill="#FCF8EA"/>
<path d="M73.9431 57.4761C72.7394 57.4761 71.7546 58.4609 71.7546 59.6646C71.7546 60.8682 72.7394 61.853 73.9431 61.853C75.1467 61.853 76.1315 60.8682 76.1315 59.6646C76.1315 58.4609 75.1467 57.4761 73.9431 57.4761Z" fill="#FCF8EA"/>
<path d="M81.1786 47.5597C82.6441 47.5597 83.8321 46.3717 83.8321 44.9063C83.8321 43.4408 82.6441 42.2528 81.1786 42.2528C79.7131 42.2528 78.5251 43.4408 78.5251 44.9063C78.5251 46.3717 79.7131 47.5597 81.1786 47.5597Z" fill="#FCF8EA"/>
<path d="M76.8153 66.4899C75.7211 66.4899 74.832 67.3789 74.832 68.4731C74.832 69.5673 75.7211 70.4564 76.8153 70.4564C77.9095 70.4564 78.7985 69.5673 78.7985 68.4731C78.7985 67.3652 77.9095 66.4899 76.8153 66.4899Z" fill="#FCF8EA"/>
<path d="M74.8869 74.7099C75.9293 74.7099 76.7744 73.8649 76.7744 72.8224C76.7744 71.78 75.9293 70.9349 74.8869 70.9349C73.8445 70.9349 72.9994 71.78 72.9994 72.8224C72.9994 73.8649 73.8445 74.7099 74.8869 74.7099Z" fill="#FCF8EA"/>
<path d="M72.0965 63.5081C70.9339 63.5081 70.0038 64.4519 70.0038 65.6008C70.0038 66.7634 70.9475 67.6935 72.0965 67.6935C73.2591 67.6935 74.1891 66.7497 74.1891 65.6008C74.2028 64.4519 73.2591 63.5081 72.0965 63.5081Z" fill="#FCF8EA"/>
<path d="M79.1269 65.2998C80.2751 65.2998 81.2059 64.369 81.2059 63.2208C81.2059 62.0726 80.2751 61.1418 79.1269 61.1418C77.9787 61.1418 77.0479 62.0726 77.0479 63.2208C77.0479 64.369 77.9787 65.2998 79.1269 65.2998Z" fill="#FCF8EA"/>
<path fill-rule="evenodd" clip-rule="evenodd" d="M89.8477 108.503C81.3 113.672 71.277 116.647 60.5593 116.647C29.255 116.647 3.87793 91.2698 3.87793 59.9655C3.87793 28.6613 29.255 3.28418 60.5593 3.28418C91.8635 3.28418 117.241 28.6613 117.241 59.9655C117.241 69.7572 114.758 78.969 110.387 87.0057L112.618 89.1711C117.472 80.5378 120.241 70.575 120.241 59.9655C120.241 27.0044 93.5204 0.28418 60.5593 0.28418C27.5982 0.28418 0.87793 27.0044 0.87793 59.9655C0.87793 92.9266 27.5982 119.647 60.5593 119.647C72.1264 119.647 82.9249 116.356 92.0698 110.66L89.8477 108.503Z" fill="white"/>
<path d="M116.665 101.047C116.659 101.391 116.544 101.725 116.337 101.999C116.129 102.274 115.84 102.475 115.511 102.575L108.15 104.785C107.766 104.901 107.417 105.11 107.134 105.394C106.85 105.677 106.641 106.026 106.525 106.41L104.315 113.771C104.215 114.1 104.014 114.389 103.739 114.597C103.465 114.804 103.131 114.919 102.787 114.925C102.443 114.936 102.104 114.837 101.819 114.643C101.534 114.449 101.318 114.169 101.203 113.844L95.0523 95.3842C94.9568 95.0979 94.943 94.7907 95.0123 94.4969C95.0816 94.2032 95.2314 93.9345 95.4448 93.7211C95.6582 93.5077 95.9269 93.3579 96.2206 93.2886C96.5144 93.2193 96.8216 93.2331 97.108 93.3286L115.568 99.4792C115.893 99.5909 116.175 99.8029 116.372 100.085C116.569 100.366 116.671 100.704 116.665 101.047Z" fill="white"/>
<path d="M40.9776 146.942C40.9456 146.942 40.9136 146.942 40.8816 146.942C40.8602 146.932 40.8336 146.926 40.8016 146.926C40.7376 146.926 40.5829 146.99 40.3376 147.118C40.1029 147.246 39.7989 147.39 39.4256 147.55C39.0629 147.71 38.6469 147.849 38.1776 147.966C37.7082 148.084 37.2176 148.142 36.7056 148.142C36.0336 148.142 35.3882 148.057 34.7696 147.886C34.1509 147.716 33.6016 147.454 33.1216 147.102C32.6522 146.74 32.2789 146.292 32.0016 145.758C31.7242 145.225 31.5856 144.601 31.5856 143.886C31.5856 143.182 31.7242 142.564 32.0016 142.03C32.2789 141.486 32.6522 141.033 33.1216 140.67C33.6016 140.308 34.1509 140.036 34.7696 139.854C35.3882 139.673 36.0336 139.582 36.7056 139.582C37.2496 139.582 37.7402 139.625 38.1776 139.71C38.6256 139.796 39.0149 139.886 39.3456 139.982C39.6762 140.078 39.9376 140.169 40.1296 140.254C40.3216 140.34 40.4389 140.382 40.4816 140.382C40.5349 140.382 40.5776 140.356 40.6096 140.302C40.6522 140.249 40.6842 140.206 40.7056 140.174L40.9456 140.366L39.6976 142.302L39.5376 142.19C39.5376 142.158 39.5322 142.126 39.5216 142.094C39.5216 142.062 39.5162 142.025 39.5056 141.982C39.4842 141.865 39.3776 141.748 39.1856 141.63C38.9936 141.502 38.7536 141.39 38.4656 141.294C38.1882 141.198 37.8896 141.118 37.5696 141.054C37.2602 140.99 36.9722 140.958 36.7056 140.958C36.2576 140.958 35.8256 141.022 35.4096 141.15C35.0042 141.278 34.6469 141.465 34.3376 141.71C34.0389 141.956 33.7989 142.26 33.6176 142.622C33.4362 142.974 33.3456 143.38 33.3456 143.838C33.3456 144.297 33.4362 144.708 33.6176 145.07C33.7989 145.422 34.0389 145.721 34.3376 145.966C34.6469 146.212 35.0042 146.398 35.4096 146.526C35.8256 146.654 36.2576 146.718 36.7056 146.718C37.0469 146.718 37.4042 146.681 37.7776 146.606C38.1509 146.521 38.4922 146.42 38.8016 146.302C39.1109 146.174 39.3669 146.036 39.5696 145.886C39.7829 145.726 39.8896 145.577 39.8896 145.438C39.8896 145.364 39.8682 145.3 39.8256 145.246L40.0496 145.118L41.1056 146.814L40.9776 146.942ZM48.6044 143.422C48.9884 143.422 49.3084 143.396 49.5644 143.342C49.8204 143.278 50.0231 143.193 50.1724 143.086C50.3218 142.98 50.4284 142.857 50.4924 142.718C50.5564 142.569 50.5884 142.409 50.5884 142.238C50.5884 142.068 50.5564 141.913 50.4924 141.774C50.4284 141.625 50.3218 141.497 50.1724 141.39C50.0231 141.284 49.8204 141.204 49.5644 141.15C49.3084 141.086 48.9884 141.054 48.6044 141.054H45.8364V143.422H48.6044ZM49.0204 139.678C49.5324 139.678 49.9964 139.726 50.4124 139.822C50.8284 139.908 51.1858 140.052 51.4844 140.254C51.7831 140.446 52.0124 140.702 52.1724 141.022C52.3324 141.332 52.4124 141.716 52.4124 142.174C52.4124 142.878 52.2044 143.417 51.7884 143.79C51.3724 144.164 50.8124 144.414 50.1084 144.542L52.2364 147.582C52.3111 147.689 52.3964 147.753 52.4924 147.774C52.5991 147.796 52.6951 147.806 52.7804 147.806V148.094H49.7884V147.806C49.8844 147.806 49.9644 147.79 50.0284 147.758C50.1031 147.726 50.1404 147.684 50.1404 147.63C50.1404 147.577 50.1191 147.518 50.0764 147.454C50.0338 147.38 49.9698 147.284 49.8844 147.166L48.1244 144.67H45.8364V147.518C45.8364 147.614 45.8684 147.689 45.9324 147.742C46.0071 147.785 46.1351 147.806 46.3164 147.806V148.094H43.5484V147.806C43.8578 147.806 44.0124 147.71 44.0124 147.518V140.254C44.0124 140.062 43.8578 139.966 43.5484 139.966V139.678H49.0204ZM60.0393 141.054C59.634 141.054 59.2286 141.118 58.8233 141.246C58.418 141.374 58.05 141.561 57.7193 141.806C57.3993 142.041 57.138 142.334 56.9353 142.686C56.7326 143.038 56.6313 143.438 56.6313 143.886C56.6313 144.334 56.7326 144.734 56.9353 145.086C57.138 145.438 57.3993 145.737 57.7193 145.982C58.05 146.217 58.418 146.398 58.8233 146.526C59.2286 146.654 59.634 146.718 60.0393 146.718C60.4446 146.718 60.85 146.654 61.2553 146.526C61.6606 146.398 62.0233 146.217 62.3433 145.982C62.674 145.737 62.9406 145.438 63.1433 145.086C63.346 144.734 63.4473 144.334 63.4473 143.886C63.4473 143.438 63.346 143.038 63.1433 142.686C62.9406 142.334 62.674 142.041 62.3433 141.806C62.0233 141.561 61.6606 141.374 61.2553 141.246C60.85 141.118 60.4446 141.054 60.0393 141.054ZM60.0393 139.582C60.626 139.582 61.2233 139.673 61.8313 139.854C62.4393 140.025 62.994 140.286 63.4953 140.638C63.9966 140.99 64.4073 141.438 64.7273 141.982C65.0473 142.516 65.2073 143.15 65.2073 143.886C65.2073 144.622 65.0473 145.262 64.7273 145.806C64.4073 146.34 63.9966 146.782 63.4953 147.134C62.994 147.486 62.4393 147.742 61.8313 147.902C61.2233 148.062 60.626 148.142 60.0393 148.142C59.4526 148.142 58.8553 148.062 58.2473 147.902C57.6393 147.742 57.0846 147.486 56.5833 147.134C56.082 146.782 55.6713 146.34 55.3513 145.806C55.0313 145.262 54.8713 144.622 54.8713 143.886C54.8713 143.15 55.0313 142.516 55.3513 141.982C55.6713 141.438 56.082 140.99 56.5833 140.638C57.0846 140.286 57.6393 140.025 58.2473 139.854C58.8553 139.673 59.4526 139.582 60.0393 139.582ZM69.2444 139.966C69.0844 139.966 69.0044 140.068 69.0044 140.27C69.0044 140.324 69.0098 140.388 69.0204 140.462C69.0418 140.537 69.0844 140.66 69.1484 140.83L70.8604 145.278H70.8924L72.5884 140.766C72.6418 140.628 72.6738 140.526 72.6844 140.462C72.7058 140.388 72.7164 140.324 72.7164 140.27C72.7164 140.068 72.6471 139.966 72.5084 139.966V139.678H75.2444V139.966C75.1698 139.966 75.1164 139.993 75.0844 140.046C75.0524 140.1 75.0364 140.158 75.0364 140.222C75.0364 140.329 75.0898 140.51 75.1964 140.766L76.9084 145.278H76.9404L78.6684 140.67C78.7431 140.51 78.7804 140.366 78.7804 140.238C78.7804 140.174 78.7538 140.116 78.7004 140.062C78.6471 139.998 78.5831 139.966 78.5084 139.966V139.678H80.8764V139.966C80.7591 139.966 80.6684 140.03 80.6044 140.158C80.5511 140.286 80.4871 140.446 80.4124 140.638L78.1084 146.75C78.0444 146.921 77.9858 147.07 77.9324 147.198C77.8898 147.326 77.8684 147.433 77.8684 147.518C77.8684 147.593 77.8951 147.662 77.9484 147.726C78.0018 147.78 78.0764 147.806 78.1724 147.806V148.094H75.6444V147.806C75.7084 147.785 75.7724 147.753 75.8364 147.71C75.9111 147.668 75.9484 147.609 75.9484 147.534C75.9484 147.449 75.9271 147.353 75.8844 147.246C75.8524 147.14 75.7938 146.99 75.7084 146.798L73.8684 142.078H73.8364L72.0924 146.702C71.9324 147.118 71.8524 147.38 71.8524 147.486C71.8524 147.657 71.9218 147.764 72.0604 147.806V148.094H69.5804V147.806C69.6444 147.806 69.7084 147.79 69.7724 147.758C69.8364 147.726 69.8684 147.673 69.8684 147.598C69.8684 147.513 69.8471 147.422 69.8044 147.326C69.7724 147.23 69.7351 147.129 69.6924 147.022L67.1324 140.414C67.0898 140.297 67.0418 140.201 66.9884 140.126C66.9458 140.041 66.8711 139.988 66.7644 139.966V139.678H69.2444V139.966ZM82.8338 147.806C83.0365 147.806 83.1378 147.71 83.1378 147.518V140.254C83.1378 140.062 83.0365 139.966 82.8338 139.966V139.678H85.5698V139.966C85.4845 139.966 85.4418 140.02 85.4418 140.126C85.4418 140.212 85.5485 140.361 85.7618 140.574L90.3538 145.342V140.254C90.3538 140.062 90.2151 139.966 89.9378 139.966V139.678H92.3538V139.966C92.1511 139.966 92.0498 140.062 92.0498 140.254V147.518C92.0498 147.71 92.1511 147.806 92.3538 147.806V148.094H89.7618V147.806C89.9005 147.806 89.9698 147.758 89.9698 147.662C89.9698 147.588 89.8845 147.465 89.7138 147.294L84.8338 142.206V147.518C84.8338 147.71 84.9565 147.806 85.2018 147.806V148.094H82.8338V147.806Z" fill="url(#paint0_linear_17_556)"/>
<path d="M14.7573 172.812C15.5093 172.812 16.1653 172.748 16.7253 172.62C17.2853 172.492 17.7493 172.268 18.1173 171.948C18.4853 171.612 18.7573 171.172 18.9333 170.628C19.1253 170.084 19.2213 169.396 19.2213 168.564C19.2213 167.732 19.1253 167.044 18.9333 166.5C18.7573 165.956 18.4853 165.524 18.1173 165.204C17.7493 164.868 17.2853 164.636 16.7253 164.508C16.1653 164.38 15.5093 164.316 14.7573 164.316H11.0373V172.812H14.7573ZM15.7173 162.252C16.5973 162.252 17.4133 162.38 18.1653 162.636C18.9333 162.892 19.5973 163.284 20.1573 163.812C20.7173 164.324 21.1573 164.98 21.4773 165.78C21.7973 166.564 21.9573 167.492 21.9573 168.564C21.9573 169.636 21.7973 170.572 21.4773 171.372C21.1573 172.156 20.7173 172.812 20.1573 173.34C19.5973 173.852 18.9333 174.236 18.1653 174.492C17.4133 174.748 16.5973 174.876 15.7173 174.876H7.74927V174.444C8.11727 174.444 8.30127 174.3 8.30127 174.012V163.116C8.30127 162.828 8.11727 162.684 7.74927 162.684V162.252H15.7173ZM29.8456 174.444C30.2616 174.444 30.4696 174.3 30.4696 174.012V163.116C30.4696 162.828 30.2616 162.684 29.8456 162.684V162.252H33.8296V162.684C33.4136 162.684 33.2056 162.828 33.2056 163.116V174.012C33.2056 174.3 33.4136 174.444 33.8296 174.444V174.876H29.8456V174.444ZM49.9098 167.868C50.4858 167.868 50.9658 167.828 51.3498 167.748C51.7338 167.652 52.0378 167.524 52.2618 167.364C52.4858 167.204 52.6458 167.02 52.7418 166.812C52.8378 166.588 52.8858 166.348 52.8858 166.092C52.8858 165.836 52.8378 165.604 52.7418 165.396C52.6458 165.172 52.4858 164.98 52.2618 164.82C52.0378 164.66 51.7338 164.54 51.3498 164.46C50.9658 164.364 50.4858 164.316 49.9098 164.316H45.7578V167.868H49.9098ZM50.5338 162.252C51.3018 162.252 51.9978 162.324 52.6218 162.468C53.2458 162.596 53.7818 162.812 54.2298 163.116C54.6778 163.404 55.0218 163.788 55.2618 164.268C55.5018 164.732 55.6218 165.308 55.6218 165.996C55.6218 167.052 55.3098 167.86 54.6858 168.42C54.0618 168.98 53.2218 169.356 52.1658 169.548L55.3578 174.108C55.4698 174.268 55.5978 174.364 55.7418 174.396C55.9018 174.428 56.0458 174.444 56.1738 174.444V174.876H51.6858V174.444C51.8298 174.444 51.9498 174.42 52.0458 174.372C52.1578 174.324 52.2138 174.26 52.2138 174.18C52.2138 174.1 52.1818 174.012 52.1178 173.916C52.0538 173.804 51.9578 173.66 51.8298 173.484L49.1898 169.74H45.7578V174.012C45.7578 174.156 45.8058 174.268 45.9018 174.348C46.0138 174.412 46.2058 174.444 46.4778 174.444V174.876H42.3258V174.444C42.7898 174.444 43.0218 174.3 43.0218 174.012V163.116C43.0218 162.828 42.7898 162.684 42.3258 162.684V162.252H50.5338ZM76.2061 164.844C76.2061 164.668 76.1341 164.54 75.9901 164.46C75.8621 164.364 75.6301 164.316 75.2941 164.316H67.5181V167.292H72.2221C72.5421 167.292 72.7901 167.252 72.9661 167.172C73.1421 167.076 73.2301 166.844 73.2301 166.476H73.6621V170.22H73.2301C73.2301 169.852 73.1421 169.62 72.9661 169.524C72.7901 169.412 72.5421 169.356 72.2221 169.356H67.5181V172.668H75.5341C75.7741 172.668 75.9661 172.612 76.1101 172.5C76.2701 172.388 76.3501 172.236 76.3501 172.044H76.7821V175.332H76.3501C76.3501 175.092 76.2701 174.956 76.1101 174.924C75.9661 174.892 75.7741 174.876 75.5341 174.876H64.3501V174.444C64.4621 174.444 64.5581 174.412 64.6381 174.348C64.7341 174.268 64.7821 174.156 64.7821 174.012V163.116C64.7821 162.972 64.7341 162.868 64.6381 162.804C64.5581 162.724 64.4621 162.684 64.3501 162.684V162.252H75.2941C75.6301 162.252 75.8621 162.204 75.9901 162.108C76.1341 161.996 76.2061 161.852 76.2061 161.676H76.6381V164.844H76.2061ZM98.2379 173.148C98.1899 173.148 98.1419 173.148 98.0939 173.148C98.0619 173.132 98.0219 173.124 97.9739 173.124C97.8779 173.124 97.6459 173.22 97.2779 173.412C96.9259 173.604 96.4699 173.82 95.9099 174.06C95.3659 174.3 94.7419 174.508 94.0379 174.684C93.3339 174.86 92.5979 174.948 91.8299 174.948C90.8219 174.948 89.8539 174.82 88.9259 174.564C87.9979 174.308 87.1739 173.916 86.4539 173.388C85.7499 172.844 85.1899 172.172 84.7739 171.372C84.3579 170.572 84.1499 169.636 84.1499 168.564C84.1499 167.508 84.3579 166.58 84.7739 165.78C85.1899 164.964 85.7499 164.284 86.4539 163.74C87.1739 163.196 87.9979 162.788 88.9259 162.516C89.8539 162.244 90.8219 162.108 91.8299 162.108C92.6459 162.108 93.3819 162.172 94.0379 162.3C94.7099 162.428 95.2939 162.564 95.7899 162.708C96.2859 162.852 96.6779 162.988 96.9659 163.116C97.2539 163.244 97.4299 163.308 97.4939 163.308C97.5739 163.308 97.6379 163.268 97.6859 163.188C97.7499 163.108 97.7979 163.044 97.8299 162.996L98.1899 163.284L96.3179 166.188L96.0779 166.02C96.0779 165.972 96.0699 165.924 96.0539 165.876C96.0539 165.828 96.0459 165.772 96.0299 165.708C95.9979 165.532 95.8379 165.356 95.5499 165.18C95.2619 164.988 94.9019 164.82 94.4699 164.676C94.0539 164.532 93.6059 164.412 93.1259 164.316C92.6619 164.22 92.2299 164.172 91.8299 164.172C91.1579 164.172 90.5099 164.268 89.8859 164.46C89.2779 164.652 88.7419 164.932 88.2779 165.3C87.8299 165.668 87.4699 166.124 87.1979 166.668C86.9259 167.196 86.7899 167.804 86.7899 168.492C86.7899 169.18 86.9259 169.796 87.1979 170.34C87.4699 170.868 87.8299 171.316 88.2779 171.684C88.7419 172.052 89.2779 172.332 89.8859 172.524C90.5099 172.716 91.1579 172.812 91.8299 172.812C92.3419 172.812 92.8779 172.756 93.4379 172.644C93.9979 172.516 94.5099 172.364 94.9739 172.188C95.4379 171.996 95.8219 171.788 96.1259 171.564C96.4459 171.324 96.6059 171.1 96.6059 170.892C96.6059 170.78 96.5739 170.684 96.5099 170.604L96.8459 170.412L98.4299 172.956L98.2379 173.148ZM113.422 174.012C113.422 174.3 113.598 174.444 113.95 174.444V174.876H110.254V174.444C110.366 174.444 110.462 174.412 110.542 174.348C110.638 174.268 110.686 174.156 110.686 174.012V164.46H106.726C106.582 164.46 106.438 164.5 106.294 164.58C106.166 164.66 106.102 164.812 106.102 165.036H105.67V161.676H106.102C106.102 161.9 106.166 162.052 106.294 162.132C106.438 162.212 106.582 162.252 106.726 162.252H117.382C117.526 162.252 117.662 162.212 117.79 162.132C117.934 162.052 118.006 161.9 118.006 161.676H118.438V165.036H118.006C118.006 164.812 117.934 164.66 117.79 164.58C117.662 164.5 117.526 164.46 117.382 164.46H113.422V174.012Z" fill="white"/>
<defs>
<linearGradient id="paint0_linear_17_556" x1="30.7216" y1="144.094" x2="94.7216" y2="144.094" gradientUnits="userSpaceOnUse">
<stop stop-color="#EEC340"/>
<stop offset="0.26" stop-color="#FFFA8A"/>
<stop offset="0.46" stop-color="#EEC340"/>
<stop offset="0.7" stop-color="#DEAC17"/>
<stop offset="0.975" stop-color="#FFFF95"/>
</linearGradient>
</defs>
</svg>
