<svg width="81" height="59" viewBox="0 0 81 59" fill="none" xmlns="http://www.w3.org/2000/svg">
<g clip-path="url(#clip0_17_427)">
<g clip-path="url(#clip1_17_427)">
<g clip-path="url(#clip2_17_427)">
<path d="M78.1744 42.6198V49.5729L73.1936 42.6198H70.6669V54.4537H73.2209V47.1916L78.438 54.4537H80.7376V42.6198H78.1744Z" fill="#FCF8EA"/>
<path d="M64.3042 49.7274L62.4319 42.7834H59.787L57.8874 49.8183L56.1423 42.6198H53.4337L56.4604 54.4537H58.969L61.0867 46.6008L63.2045 54.4537H65.6949L68.7124 42.6198H66.0312L64.3042 49.7274Z" fill="#FCF8EA"/>
<path d="M46.317 42.3834C42.4814 42.3834 39.5547 45.1011 39.5547 48.5367C39.5547 51.9724 42.4814 54.69 46.317 54.69C50.1525 54.69 53.0792 51.9724 53.0792 48.5367C53.0792 45.1011 50.1525 42.3834 46.317 42.3834ZM46.317 52.2632C44.1719 52.2632 42.3723 50.8272 42.3723 48.5549C42.3723 46.2826 44.181 44.8193 46.317 44.8193C48.462 44.8193 50.2616 46.2917 50.2616 48.5549C50.2616 50.8181 48.4529 52.2632 46.317 52.2632Z" fill="#FCF8EA"/>
<path d="M35.8009 50.5545C35.8009 49.3911 34.792 48.6004 33.6741 48.6004C33.4196 48.6004 32.7288 48.6549 32.0835 48.9276L31.0928 47.5915L34.5193 44.7102H29.6021V42.6016H38.0459V44.1103L34.8102 46.8371C36.7098 47.0279 38.4095 48.7003 38.4095 50.5363C38.4095 52.8177 36.4917 54.79 33.3014 54.79C31.5381 54.79 30.0112 54.3446 28.9114 53.3539L30.1838 51.727C31.5927 52.545 32.6197 52.6359 33.3378 52.6359C34.7738 52.6268 35.8009 51.5816 35.8009 50.5545Z" fill="#FCF8EA"/>
<path d="M24.6759 49.9365C26.0484 49.4547 27.1572 48.3731 27.1572 46.4372C27.1572 43.6286 24.8122 42.6198 22.7308 42.6198H16.2958V54.4446H18.8862V50.2546H21.8401L24.8395 54.4446H27.9116L24.6759 49.9365ZM22.3945 47.8823C21.3766 47.8823 18.8862 47.8823 18.8862 47.8823V45.0011C18.8862 45.0011 21.3766 45.0011 22.3945 45.0011C23.4125 45.0011 24.4214 45.2374 24.4214 46.4463C24.4305 47.6369 23.4125 47.8823 22.3945 47.8823Z" fill="#FCF8EA"/>
<path d="M7.50666 44.8102C9.8062 44.8102 10.9605 46.1372 11.3423 47.0825L13.66 45.71C12.7329 43.9195 10.6515 42.3834 7.50666 42.3834C3.67108 42.3834 0.762573 45.1011 0.762573 48.5367C0.762573 51.9724 3.67108 54.69 7.50666 54.69C10.6515 54.69 12.7329 53.154 13.66 51.3634L11.3423 49.991C10.9605 50.9362 9.8062 52.2632 7.50666 52.2632C5.36164 52.2632 3.5711 50.809 3.5711 48.5367C3.5711 46.2645 5.36164 44.8102 7.50666 44.8102Z" fill="#FCF8EA"/>
<path d="M36.8007 19.9153C36.0008 19.9153 35.3464 20.5697 35.3464 21.3695C35.3464 22.1694 36.0008 22.8238 36.8007 22.8238C37.6096 22.8238 38.2549 22.1694 38.2549 21.3695C38.2549 20.5697 37.6096 19.9153 36.8007 19.9153Z" fill="#FCF8EA"/>
<path d="M36.0281 15.5435C35.1828 15.5435 34.4921 16.2342 34.4921 17.0795C34.4921 17.9248 35.1828 18.6156 36.0281 18.6156C36.8825 18.6156 37.5642 17.9248 37.5642 17.0795C37.5642 16.2342 36.8734 15.5435 36.0281 15.5435Z" fill="#FCF8EA"/>
<path d="M26.2574 18.6246C27.1008 18.6246 27.7844 17.941 27.7844 17.0976C27.7844 16.2543 27.1008 15.5707 26.2574 15.5707C25.4141 15.5707 24.7305 16.2543 24.7305 17.0976C24.7305 17.941 25.4141 18.6246 26.2574 18.6246Z" fill="#FCF8EA"/>
<path d="M30.1112 15.7525C30.9946 15.7525 31.7108 15.0363 31.7108 14.1528C31.7108 13.2693 30.9946 12.5531 30.1112 12.5531C29.2277 12.5531 28.5115 13.2693 28.5115 14.1528C28.5115 15.0363 29.2277 15.7525 30.1112 15.7525Z" fill="#FCF8EA"/>
<path d="M32.038 17.5339C31.2382 17.5339 30.5837 18.1883 30.5837 18.9882C30.5837 19.788 31.2382 20.4424 32.038 20.4424C32.8378 20.4424 33.4922 19.788 33.4922 18.9882C33.4922 18.1883 32.8469 17.5339 32.038 17.5339Z" fill="#FCF8EA"/>
<path d="M27.23 10.9444C28.2038 10.9444 28.9932 10.155 28.9932 9.18113C28.9932 8.20729 28.2038 7.41785 27.23 7.41785C26.2561 7.41785 25.4667 8.20729 25.4667 9.18113C25.4667 10.155 26.2561 10.9444 27.23 10.9444Z" fill="#FCF8EA"/>
<path d="M45.0626 19.9153C44.2537 19.9153 43.6084 20.5697 43.6084 21.3695C43.6084 22.1694 44.2628 22.8238 45.0626 22.8238C45.8625 22.8238 46.5169 22.1694 46.5169 21.3695C46.5169 20.5697 45.8625 19.9153 45.0626 19.9153Z" fill="#FCF8EA"/>
<path d="M37.3824 26.3685C38.1454 26.3685 38.7639 25.75 38.7639 24.987C38.7639 24.224 38.1454 23.6055 37.3824 23.6055C36.6194 23.6055 36.0009 24.224 36.0009 24.987C36.0009 25.75 36.6194 26.3685 37.3824 26.3685Z" fill="#FCF8EA"/>
<path d="M44.0175 29.6225C44.7755 29.6225 45.3899 29.008 45.3899 28.25C45.3899 27.492 44.7755 26.8776 44.0175 26.8776C43.2595 26.8776 42.645 27.492 42.645 28.25C42.645 29.008 43.2595 29.6225 44.0175 29.6225Z" fill="#FCF8EA"/>
<path d="M37.846 29.6133C38.6039 29.6133 39.2184 28.9988 39.2184 28.2409C39.2184 27.4829 38.6039 26.8684 37.846 26.8684C37.088 26.8684 36.4735 27.4829 36.4735 28.2409C36.4735 28.9988 37.088 29.6133 37.846 29.6133Z" fill="#FCF8EA"/>
<path d="M40.9271 0.810059C39.8092 0.810059 38.9003 1.71897 38.9003 2.83692C38.9003 3.95488 39.8092 4.86378 40.9271 4.86378C42.0451 4.86378 42.954 3.95488 42.954 2.83692C42.954 1.71897 42.0542 0.810059 40.9271 0.810059Z" fill="#FCF8EA"/>
<path d="M44.481 26.3776C45.244 26.3776 45.8626 25.759 45.8626 24.996C45.8626 24.233 45.244 23.6145 44.481 23.6145C43.718 23.6145 43.0995 24.233 43.0995 24.996C43.0995 25.759 43.718 26.3776 44.481 26.3776Z" fill="#FCF8EA"/>
<path d="M23.2852 19.0063C22.449 19.0063 21.7673 19.688 21.7673 20.5242C21.7673 21.3604 22.449 22.0421 23.2852 22.0421C24.1214 22.0421 24.8031 21.3604 24.8031 20.5242C24.8031 19.688 24.1214 19.0063 23.2852 19.0063Z" fill="#FCF8EA"/>
<path d="M19.4951 18.9337C20.3836 18.9337 21.1039 18.2134 21.1039 17.325C21.1039 16.4365 20.3836 15.7162 19.4951 15.7162C18.6066 15.7162 17.8864 16.4365 17.8864 17.325C17.8864 18.2134 18.6066 18.9337 19.4951 18.9337Z" fill="#FCF8EA"/>
<path d="M34.8557 9.85364C33.9286 9.85364 33.1742 10.608 33.1742 11.5351C33.1742 12.4622 33.9286 13.2166 34.8557 13.2166C35.7828 13.2166 36.5372 12.4622 36.5372 11.5351C36.5462 10.608 35.7918 9.85364 34.8557 9.85364Z" fill="#FCF8EA"/>
<path d="M28.5933 19.9607C27.8299 19.9607 27.2118 20.5788 27.2118 21.3422C27.2118 22.1057 27.8299 22.7238 28.5933 22.7238C29.3568 22.7238 29.9749 22.1057 29.9749 21.3422C29.984 20.5788 29.3568 19.9607 28.5933 19.9607Z" fill="#FCF8EA"/>
<path d="M25.9302 25.4142C26.6982 25.4142 27.3208 24.7916 27.3208 24.0236C27.3208 23.2555 26.6982 22.6329 25.9302 22.6329C25.1622 22.6329 24.5396 23.2555 24.5396 24.0236C24.5396 24.7916 25.1622 25.4142 25.9302 25.4142Z" fill="#FCF8EA"/>
<path d="M40.9272 11.8442C41.9512 11.8442 42.7813 11.0141 42.7813 9.99004C42.7813 8.966 41.9512 8.13586 40.9272 8.13586C39.9031 8.13586 39.073 8.966 39.073 9.99004C39.073 11.0141 39.9031 11.8442 40.9272 11.8442Z" fill="#FCF8EA"/>
<path d="M40.9272 17.4794C41.8559 17.4794 42.6087 16.7266 42.6087 15.7979C42.6087 14.8693 41.8559 14.1165 40.9272 14.1165C39.9986 14.1165 39.2457 14.8693 39.2457 15.7979C39.2457 16.7266 39.9986 17.4794 40.9272 17.4794Z" fill="#FCF8EA"/>
<path d="M40.9271 22.7419C40.0818 22.7419 39.4001 23.4236 39.4001 24.2689C39.4001 25.1142 40.0818 25.7959 40.9271 25.7959C41.7724 25.7959 42.4541 25.1142 42.4541 24.2689C42.4541 23.4236 41.7724 22.7419 40.9271 22.7419Z" fill="#FCF8EA"/>
<path d="M30.1293 23.5145C29.4022 23.5145 28.8114 24.1053 28.8114 24.8324C28.8114 25.5596 29.4022 26.1504 30.1293 26.1504C30.8564 26.1504 31.4472 25.5596 31.4472 24.8324C31.4381 24.1053 30.8474 23.5145 30.1293 23.5145Z" fill="#FCF8EA"/>
<path d="M55.5333 27.032C55.5333 26.2776 54.9153 25.6595 54.1609 25.6595C53.4065 25.6595 52.7884 26.2776 52.7884 27.032C52.7884 27.4319 52.9611 27.7864 53.2338 28.0409C53.1338 28.0136 53.0248 28.0045 52.9157 28.0045C52.1886 28.0045 51.5887 28.5953 51.5887 29.3315C51.5887 29.6678 51.7159 29.9769 51.925 30.2132C51.8886 30.2132 51.8523 30.2041 51.8068 30.2041C51.1251 30.2041 50.5707 30.7585 50.5707 31.4402C50.5707 31.6402 50.6162 31.8219 50.698 31.9855C50.3344 32.131 50.0526 32.44 49.9345 32.8217C49.9799 32.6854 50.0072 32.54 50.0072 32.3855C50.0072 32.031 49.8708 31.7129 49.6436 31.4675C50.2071 31.3402 50.6252 30.8403 50.6252 30.2495C50.6252 29.5588 50.0617 28.9952 49.371 28.9952C48.6802 28.9952 48.1167 29.5588 48.1167 30.2495C48.1167 30.5676 48.2348 30.8585 48.4348 31.0766C47.9349 31.1675 47.535 31.5493 47.3986 32.031C47.4441 31.9037 47.4622 31.7674 47.4622 31.622C47.4622 31.1493 47.2168 30.7403 46.8442 30.4949C47.535 30.4586 48.0894 29.886 48.0894 29.1861C48.0894 28.4862 47.4986 27.8773 46.7806 27.8773C46.0534 27.8773 45.4717 28.4681 45.4717 29.1861C45.4717 29.6497 45.7081 30.0496 46.0716 30.2859C45.5263 30.3132 45.0718 30.6585 44.8809 31.1403C44.8809 31.1039 44.89 31.0766 44.89 31.0403C44.89 30.3041 44.2902 29.7042 43.5539 29.7042C42.9541 29.7042 42.436 30.1041 42.2724 30.6585C42.2269 29.9678 41.6452 29.4133 40.9454 29.4133C40.2455 29.4133 39.6638 29.9587 39.6184 30.6585C39.4548 30.1041 38.9458 29.7042 38.3368 29.7042C37.6006 29.7042 37.0007 30.3041 37.0007 31.0403C37.0007 31.0766 37.0007 31.1039 37.0098 31.1403C36.828 30.6585 36.3645 30.3132 35.8191 30.2859C36.1827 30.0496 36.419 29.6497 36.419 29.1861C36.419 28.459 35.8282 27.8773 35.1102 27.8773C34.3831 27.8773 33.8014 28.4681 33.8014 29.1861C33.8014 29.9041 34.3558 30.4586 35.0466 30.4949C34.6739 30.7312 34.4285 31.1493 34.4285 31.622C34.4285 31.7674 34.4467 31.8946 34.4921 32.031C34.3558 31.5402 33.9559 31.1675 33.456 31.0766C33.6559 30.8585 33.7741 30.5676 33.7741 30.2495C33.7741 29.5588 33.2106 28.9952 32.5198 28.9952C31.829 28.9952 31.2655 29.5588 31.2655 30.2495C31.2655 30.8494 31.6836 31.3493 32.2471 31.4675C32.0199 31.7038 31.8836 32.031 31.8836 32.3855C31.8836 32.54 31.9108 32.6854 31.9563 32.8217C31.8472 32.44 31.5564 32.131 31.1928 31.9855C31.2746 31.8219 31.3201 31.6402 31.3201 31.4402C31.3201 30.7585 30.7656 30.2041 30.0839 30.2041C30.0476 30.2041 30.0112 30.2041 29.9658 30.2132C30.1748 29.9769 30.3021 29.6678 30.3021 29.3315C30.3021 28.6044 29.7113 28.0045 28.9751 28.0045C28.866 28.0045 28.7569 28.0227 28.657 28.0409C28.9296 27.7864 29.1023 27.4319 29.1023 27.032C29.1023 26.2776 28.4843 25.6595 27.7299 25.6595C26.9755 25.6595 26.3574 26.2776 26.3574 27.032C26.3574 27.7864 26.9755 28.4044 27.7299 28.4044C27.848 28.4044 27.9662 28.3863 28.0753 28.359C27.8208 28.6044 27.6572 28.9407 27.6572 29.3224C27.6572 30.0496 28.2479 30.6494 28.9842 30.6494C29.0387 30.6494 29.0841 30.6494 29.1387 30.6404C28.9569 30.8585 28.8387 31.1403 28.8387 31.4402C28.8387 31.9401 29.1387 32.3673 29.5568 32.5672C29.4568 32.749 29.3932 32.9672 29.3932 33.1944C29.3932 33.6398 29.6113 34.0215 29.9476 34.2578C29.8931 34.4032 29.8658 34.5577 29.8658 34.7123C29.8658 35.0849 30.0203 35.4212 30.2657 35.6666C30.1839 35.8393 30.1385 36.0302 30.1385 36.2301C30.1385 36.9664 30.7384 37.5662 31.4746 37.5662C32.2108 37.5662 32.8107 36.9664 32.8107 36.2301V36.221C33.0561 36.5483 33.4378 36.7573 33.8832 36.7573C34.5921 36.7573 35.1647 36.212 35.2102 35.5121C35.4465 35.8848 35.8646 36.1392 36.3372 36.1392C36.8826 36.1392 37.3461 35.8211 37.5552 35.3576C37.8006 35.703 38.2005 35.9302 38.6549 35.9302C39.1548 35.9302 39.6002 35.6484 39.8274 35.2394C40.0637 35.6121 40.4818 35.8575 40.9545 35.8575C41.4271 35.8575 41.8452 35.6121 42.0815 35.2394C42.3087 35.6484 42.745 35.9302 43.254 35.9302C43.7085 35.9302 44.1084 35.703 44.3538 35.3576C44.5628 35.8211 45.0264 36.1392 45.5717 36.1392C46.0444 36.1392 46.4624 35.8938 46.6988 35.5121C46.7442 36.2029 47.3259 36.7573 48.0258 36.7573C48.462 36.7573 48.8529 36.5483 49.0983 36.221V36.2301C49.0983 36.9664 49.6982 37.5662 50.4344 37.5662C51.1706 37.5662 51.7705 36.9664 51.7705 36.2301C51.7705 36.0302 51.725 35.8393 51.6432 35.6666C51.8886 35.4212 52.0431 35.0849 52.0431 34.7123C52.0431 34.5487 52.0159 34.3941 51.9613 34.2578C52.2976 34.0215 52.5158 33.6307 52.5158 33.1944C52.5158 32.9672 52.4612 32.7581 52.3522 32.5672C52.7794 32.3673 53.0702 31.9401 53.0702 31.4402C53.0702 31.1312 52.9611 30.8585 52.7703 30.6404C52.8248 30.6494 52.8702 30.6494 52.9248 30.6494C53.6519 30.6494 54.2518 30.0587 54.2518 29.3224C54.2518 28.9407 54.0882 28.6044 53.8337 28.359C53.9428 28.3863 54.0609 28.4044 54.1791 28.4044C54.9153 28.4044 55.5333 27.7864 55.5333 27.032Z" fill="#FCF8EA"/>
<path d="M62.3683 18.9337C63.2568 18.9337 63.9771 18.2134 63.9771 17.325C63.9771 16.4365 63.2568 15.7162 62.3683 15.7162C61.4798 15.7162 60.7595 16.4365 60.7595 17.325C60.7595 18.2134 61.4798 18.9337 62.3683 18.9337Z" fill="#FCF8EA"/>
<path d="M58.5782 22.0421C59.4165 22.0421 60.096 21.3625 60.096 20.5242C60.096 19.6859 59.4165 19.0063 58.5782 19.0063C57.7399 19.0063 57.0603 19.6859 57.0603 20.5242C57.0603 21.3625 57.7399 22.0421 58.5782 22.0421Z" fill="#FCF8EA"/>
<path d="M40.9271 26.3776C40.1273 26.3776 39.4819 27.0229 39.4819 27.8227C39.4819 28.6226 40.1273 29.2679 40.9271 29.2679C41.7269 29.2679 42.3723 28.6226 42.3723 27.8227C42.3723 27.0229 41.7269 26.3776 40.9271 26.3776Z" fill="#FCF8EA"/>
<path d="M31.4109 26.4685C30.7201 26.4685 30.1566 27.032 30.1566 27.7228C30.1566 28.4136 30.7201 28.9771 31.4109 28.9771C32.1017 28.9771 32.6652 28.4136 32.6652 27.7228C32.6652 27.032 32.1017 26.4685 31.4109 26.4685Z" fill="#FCF8EA"/>
<path d="M34.2467 24.887C33.5196 24.887 32.9379 25.4778 32.9379 26.1958C32.9379 26.9138 33.5287 27.5046 34.2467 27.5046C34.9738 27.5046 35.5555 26.9138 35.5555 26.1958C35.5555 25.4778 34.9738 24.887 34.2467 24.887Z" fill="#FCF8EA"/>
<path d="M33.265 21.5422C32.4924 21.5422 31.8744 22.1694 31.8744 22.9329C31.8744 23.7054 32.5015 24.3235 33.265 24.3235C34.0376 24.3235 34.6556 23.6963 34.6556 22.9329C34.6556 22.1694 34.0285 21.5422 33.265 21.5422Z" fill="#FCF8EA"/>
<path d="M55.6059 18.6246C56.4493 18.6246 57.1329 17.941 57.1329 17.0976C57.1329 16.2543 56.4493 15.5707 55.6059 15.5707C54.7626 15.5707 54.079 16.2543 54.079 17.0976C54.079 17.941 54.7626 18.6246 55.6059 18.6246Z" fill="#FCF8EA"/>
<path d="M40.9271 21.9785C41.8156 21.9785 42.5359 21.2582 42.5359 20.3698C42.5359 19.4813 41.8156 18.761 40.9271 18.761C40.0386 18.761 39.3184 19.4813 39.3184 20.3698C39.3184 21.2582 40.0386 21.9785 40.9271 21.9785Z" fill="#FCF8EA"/>
<path d="M45.8352 15.5525C44.9809 15.5525 44.2992 16.2433 44.2992 17.0885C44.2992 17.9338 44.99 18.6246 45.8352 18.6246C46.6896 18.6246 47.3713 17.9338 47.3713 17.0885C47.3804 16.2342 46.6896 15.5525 45.8352 15.5525Z" fill="#FCF8EA"/>
<path d="M47.6077 24.8961C46.8805 24.8961 46.2988 25.4869 46.2988 26.2049C46.2988 26.9321 46.8896 27.5138 47.6077 27.5138C48.3348 27.5138 48.9165 26.923 48.9165 26.2049C48.9256 25.4778 48.3348 24.8961 47.6077 24.8961Z" fill="#FCF8EA"/>
<path d="M55.9241 22.642C55.1606 22.642 54.5334 23.26 54.5334 24.0326C54.5334 24.7961 55.1515 25.4232 55.9241 25.4232C56.6876 25.4232 57.3147 24.8052 57.3147 24.0326C57.3147 23.26 56.6967 22.642 55.9241 22.642Z" fill="#FCF8EA"/>
<path d="M47.0078 9.86279C46.0807 9.86279 45.3263 10.6172 45.3263 11.5443C45.3263 12.4714 46.0807 13.2258 47.0078 13.2258C47.9349 13.2258 48.6893 12.4714 48.6893 11.5443C48.6893 10.6172 47.9349 9.86279 47.0078 9.86279Z" fill="#FCF8EA"/>
<path d="M51.7523 12.5531C50.8706 12.5531 50.1526 13.2711 50.1526 14.1528C50.1526 15.0344 50.8706 15.7525 51.7523 15.7525C52.6339 15.7525 53.3519 15.0344 53.3519 14.1528C53.3519 13.2711 52.6339 12.5531 51.7523 12.5531Z" fill="#FCF8EA"/>
<path d="M49.8253 17.5339C49.0255 17.5339 48.3711 18.1883 48.3711 18.9882C48.3711 19.788 49.0255 20.4424 49.8253 20.4424C50.6252 20.4424 51.2796 19.788 51.2796 18.9882C51.2796 18.1883 50.6252 17.5339 49.8253 17.5339Z" fill="#FCF8EA"/>
<path d="M54.6335 10.9444C55.6074 10.9444 56.3968 10.155 56.3968 9.18113C56.3968 8.20729 55.6074 7.41785 54.6335 7.41785C53.6597 7.41785 52.8702 8.20729 52.8702 9.18113C52.8702 10.155 53.6597 10.9444 54.6335 10.9444Z" fill="#FCF8EA"/>
<path d="M51.7341 23.5237C51.0069 23.5237 50.4161 24.1145 50.4161 24.8416C50.4161 25.5687 51.0069 26.1595 51.7341 26.1595C52.4612 26.1595 53.052 25.5687 53.052 24.8416C53.052 24.1054 52.4612 23.5237 51.7341 23.5237Z" fill="#FCF8EA"/>
<path d="M50.4525 28.9861C51.1453 28.9861 51.7068 28.4246 51.7068 27.7318C51.7068 27.0391 51.1453 26.4775 50.4525 26.4775C49.7598 26.4775 49.1982 27.0391 49.1982 27.7318C49.1982 28.4246 49.7598 28.9861 50.4525 28.9861Z" fill="#FCF8EA"/>
<path d="M48.5983 21.5422C47.8257 21.5422 47.2076 22.1694 47.2076 22.9329C47.2076 23.7054 47.8348 24.3235 48.5983 24.3235C49.3708 24.3235 49.9889 23.6963 49.9889 22.9329C49.998 22.1694 49.3708 21.5422 48.5983 21.5422Z" fill="#FCF8EA"/>
<path d="M53.2701 22.7329C54.0331 22.7329 54.6516 22.1144 54.6516 21.3514C54.6516 20.5884 54.0331 19.9698 53.2701 19.9698C52.5071 19.9698 51.8885 20.5884 51.8885 21.3514C51.8885 22.1144 52.5071 22.7329 53.2701 22.7329Z" fill="#FCF8EA"/>
</g>
</g>
</g>
<defs>
<clipPath id="clip0_17_427">
<rect width="80" height="53.98" fill="white" transform="translate(0.75 0.810059)"/>
</clipPath>
<clipPath id="clip1_17_427">
<rect width="80" height="53.98" fill="white" transform="translate(0.75 0.810059)"/>
</clipPath>
<clipPath id="clip2_17_427">
<rect width="79.9747" height="53.98" fill="white" transform="translate(0.762573 0.810059)"/>
</clipPath>
</defs>
</svg>
